<?xml version="1.0" encoding="UTF-8" standalone="no"?>
<svg
   viewBox="0 0 512 512"
   width="512"
   height="512"
   version="1.1"
   id="svg16"
   xmlns="http://www.w3.org/2000/svg"
   xmlns:svg="http://www.w3.org/2000/svg">
  <defs
     id="defs20" />
  <circle
     cx="256"
     cy="256"
     r="236"
     fill="#5b1626"
     id="circle2" />
  <g
     fill="none"
     stroke="#f1ead9"
     stroke-linecap="round"
     stroke-linejoin="round"
     id="g14">
    <path
       id="circle4"
       style="stroke-width:26"
       d="M 492,256 A 236,236 0 0 1 256,492 236,236 0 0 1 20,256 236,236 0 0 1 256,20 236,236 0 0 1 492,256 Z" />
    <path
       d="m 96,330 104,-158 50,78 62,-102 112,182"
       stroke-width="24"
       id="path6" />
    <path
       d="M 76,330 H 440"
       stroke-width="22"
       id="path8" />
    <path
       id="circle10"
       style="stroke-width:20"
       d="m 424,160 a 26,26 0 0 1 -26,26 26,26 0 0 1 -26,-26 26,26 0 0 1 26,-26 26,26 0 0 1 26,26 z" />
    <path
       d="m 150,368 c 50,60 150,22 206,64"
       stroke-width="20"
       stroke-dasharray="2, 40"
       id="path12" />
  </g>
</svg>
